<svg xmlns="http://www.w3.org/2000/svg" viewBox="0 0 375 160" preserveAspectRatio="none">
  <!-- عمق أغنى محدود — المقارنة الثالثة (S01) — للسطح البارز فقط -->
  <!-- طبقات أكثر وسعة أكبر من waves-soft؛ تبقى خافتة بلا لمعان مستمر -->
  <path fill="#507F8B" fill-opacity="0.22" d="M0,48 C80,18 170,72 250,46 C310,26 350,44 375,32 L375,160 L0,160 Z"/>
  <path fill="#DFEEE6" fill-opacity="0.18" d="M0,92 C100,60 220,110 310,84 C345,74 365,82 375,78 L375,160 L0,160 Z"/>
  <path fill="#F4AD76" fill-opacity="0.10" d="M0,126 C120,100 260,140 375,116 L375,160 L0,160 Z"/>
  <path fill="#F7F8F4" fill-opacity="0.12" d="M0,146 C130,132 270,156 375,140 L375,160 L0,160 Z"/>
</svg>
